PathFileType	4	(X/Y/Z)	Kaydara	
DataRate	CameraRate	NumFrames	NumMarkers	Units	OrigDataRate	OrigDataStartFrame	OrigNumFrames	
120.00	120.00	4	72	mm	120.00	196	261	
Frame#	Time	Hips			RightUpLeg			RightLeg			RightFoot			RightFoot_End			LeftUpLeg			LeftLeg			LeftFoot			LeftFoot_End			Spine			Spine1			Spine2			Spine3			Neck			Head			Head_End			RightShoulder			RightArm			RightForeArm			RightHand			RightHandThumb1			RightHandThumb2			RightHandThumb3			RightHandThumb3_End			RightInHandIndex			RightHandIndex1			RightHandIndex2			RightHandIndex3			RightHandIndex3_End			RightInHandMiddle			RightHandMiddle1			RightHandMiddle2			RightHandMiddle3			RightHandMiddle3_End			RightInHandRing			RightHandRing1			RightHandRing2			RightHandRing3			RightHandRing3_End			RightInHandPinky			RightHandPinky1			RightHandPinky2			RightHandPinky3			RightHandPinky3_End			LeftShoulder			LeftArm			LeftForeArm			LeftHand			LeftHandThumb1			LeftHandThumb2			LeftHandThumb3			LeftHandThumb3_End			LeftInHandIndex			LeftHandIndex1			LeftHandIndex2			LeftHandIndex3			LeftHandIndex3_End			LeftInHandMiddle			LeftHandMiddle1			LeftHandMiddle2			LeftHandMiddle3			LeftHandMiddle3_End			LeftInHandRing			LeftHandRing1			LeftHandRing2			LeftHandRing3			LeftHandRing3_End			LeftInHandPinky			LeftHandPinky1			LeftHandPinky2			LeftHandPinky3			LeftHandPinky3_End			
		X1	Y1	Z1	X2	Y2	Z2	X3	Y3	Z3	X4	Y4	Z4	X5	Y5	Z5	X6	Y6	Z6	X7	Y7	Z7	X8	Y8	Z8	X9	Y9	Z9	X10	Y10	Z10	X11	Y11	Z11	X12	Y12	Z12	X13	Y13	Z13	X14	Y14	Z14	X15	Y15	Z15	X16	Y16	Z16	X17	Y17	Z17	X18	Y18	Z18	X19	Y19	Z19	X20	Y20	Z20	X21	Y21	Z21	X22	Y22	Z22	X23	Y23	Z23	X24	Y24	Z24	X25	Y25	Z25	X26	Y26	Z26	X27	Y27	Z27	X28	Y28	Z28	X29	Y29	Z29	X30	Y30	Z30	X31	Y31	Z31	X32	Y32	Z32	X33	Y33	Z33	X34	Y34	Z34	X35	Y35	Z35	X36	Y36	Z36	X37	Y37	Z37	X38	Y38	Z38	X39	Y39	Z39	X40	Y40	Z40	X41	Y41	Z41	X42	Y42	Z42	X43	Y43	Z43	X44	Y44	Z44	X45	Y45	Z45	X46	Y46	Z46	X47	Y47	Z47	X48	Y48	Z48	X49	Y49	Z49	X50	Y50	Z50	X51	Y51	Z51	X52	Y52	Z52	X53	Y53	Z53	X54	Y54	Z54	X55	Y55	Z55	X56	Y56	Z56	X57	Y57	Z57	X58	Y58	Z58	X59	Y59	Z59	X60	Y60	Z60	X61	Y61	Z61	X62	Y62	Z62	X63	Y63	Z63	X64	Y64	Z64	X65	Y65	Z65	X66	Y66	Z66	X67	Y67	Z67	X68	Y68	Z68	X69	Y69	Z69	X70	Y70	Z70	X71	Y71	Z71	X72	Y72	Z72	

196	1.625	1081.203	893.81699	129.612	1104.7132897524243	864.4490704395764	78.28423721323777	1018.602951627433	458.8626925984246	45.72008705777813	1101.4444444177855	118.74617222138875	-71.03366888184426	1026.8718350966838	21.693640980222874	67.49743729120745	1068.439012724503	896.5139548334772	195.01229916360592	958.7627830194011	507.1819025773446	300.7833004274245	848.0139097072642	92.2441446030001	387.3718656363056	705.6727472497354	25.26376003330139	281.670394866077	1037.3708416526974	1016.8390398412786	71.94370700483056	985.6877764493033	1083.7809771920367	24.34143077073783	927.2993264256861	1148.5432666254903	-26.682647441336997	865.078222371648	1202.362350950171	-77.76407382196929	797.4886358832482	1260.5439250538848	-130.39203149857656	730.9680361045316	1310.4335182459527	-173.06942972243536	591.8264098123202	1387.2684388608266	-179.12660391779605	824.8959183736602	1235.5620396257832	-125.07350904607766	840.1614697759228	1214.2565322516275	-156.86148504701234	914.9924278251345	1090.65398311093	-100.1536815016455	936.5285814999417	1016.2668143642743	-90.55745258757945	942.5469115095968	1032.6792730522197	-95.76771527104718	944.3525963415624	1035.7147710797813	-101.85955445265218	945.7581463186362	1034.433773933104	-105.10047036916367	947.056554226173	1030.4615972168372	-106.94557538274825	944.2248672796339	1022.4669801498422	-92.30096816054385	953.9591719536052	1017.3938418164834	-92.78826719288486	957.555068152814	1011.4503046597397	-95.02301046049699	957.170139546292	1009.5897682550167	-98.23081713603482	955.0839300921743	1009.2872559862742	-102.11253293164572	944.1377169275819	1013.2952230559928	-89.65035291767676	953.5860254106361	1003.3867162252536	-88.69138714268595	957.4628191062287	995.7043859276042	-90.78098370269413	956.9758356647045	992.8854293125255	-94.48363412037739	954.6821625206945	992.2752527067018	-98.64953184551788	943.8629124184155	1006.94613594356	-87.73955876706763	952.1948550972292	992.5584683198572	-85.14624024517471	955.5105204646361	984.654921415713	-86.61266773474259	955.0071296015205	981.2945145134184	-89.99571452014678	952.8345495911499	980.416900055242	-93.8234013475429	942.9870674875574	999.7651978547196	-85.72558347405135	950.2102991639449	982.144616416425	-82.01933043122251	952.7299122249011	973.994488030997	-82.6514483673677	952.297212587125	970.662386515147	-84.85680385495155	950.334955481377	969.377937749574	-88.09658253892997	814.7288827222824	1246.1732378773197	-100.26624497919005	804.8937852186575	1242.2045816216923	-58.15101294452608	889.529600206534	1113.794514966537	-47.53211876552435	943.5475035471338	1026.8872728235847	-53.11234442060965	945.9929351237075	1043.8088739937693	-60.00770032576832	954.0608930269018	1045.600744632526	-57.54528983141054	960.6592111198861	1043.4638276038897	-54.47337108213258	966.9981284246223	1038.7867799252574	-50.75147943687223	949.5498118413599	1033.8722814715113	-56.373324443739804	963.1359574034122	1029.2018997582811	-53.734073283086666	973.5508261172982	1022.5097092971256	-48.70411423119133	978.7004635422184	1019.5794297230509	-45.1344575316254	982.0688767383665	1017.9838852689021	-41.881353912459915	951.7874502368213	1024.6651888642082	-52.62231038585284	966.2490318916676	1015.1306939868012	-48.02005194587434	977.8661092605752	1006.6241751629519	-42.04100389641058	984.2000643860276	1002.511143770889	-37.4990304814679	987.9445937606756	1000.4844508294599	-33.82514850223166	953.0210049629983	1018.2914465936861	-50.06259692618601	967.0504001014698	1004.2485707063204	-43.78341591746034	977.4110653593664	995.6185361499498	-38.07784552157794	983.6455577849696	991.0055760586899	-33.434300901891945	987.2255395281221	988.7940322197071	-29.855558400579856	954.0541951326314	1010.9869709314354	-47.00744544456067	967.5610645209811	993.6421509714752	-39.44114837496734	976.1632233004431	984.8960251671919	-34.12853552144699	980.8585789953993	980.6434093758171	-30.381712872772926	984.11497075401	978.1733496629954	-27.004454335568933
197	1.633	1081.203	893.81699	129.612	1105.1604239467745	864.520027872745	78.20940402054646	1019.6824405932226	458.8193143357496	46.23936187243435	1103.727888361649	119.27530527067739	-71.61739497957032	1030.2866276536377	21.945772574593093	67.33493907417056	1068.0575693632109	896.4922237936742	195.12634072571544	958.2946265231823	507.2931209327809	301.3199022432627	847.7209060336403	91.99404348693659	387.0920741484368	704.7630242010687	25.833006241988578	281.73640874430475	1037.0441367363842	1016.6546708878863	71.80284458042212	985.2403222301381	1083.4248629393562	24.105710166135886	926.7768106072899	1148.054302108923	-26.979284900659284	864.5716945994277	1201.8824397233002	-78.04633668501202	797.016472214203	1260.0776512637908	-130.67794729857349	730.6216922080299	1310.05226172997	-173.42644769672418	591.5084857204229	1386.926024488362	-179.43718098766436	824.1219108362069	1234.7029226419227	-125.31422877529674	838.0901684720105	1211.815092216858	-156.5237945452667	914.1569803105454	1086.3742252117481	-103.1327164870044	932.8675743175836	1011.6554030813365	-90.72348588971026	938.8001919231483	1027.8380441273405	-95.73188018317201	940.5622667628438	1030.713352251087	-101.3977353861403	941.9101417452898	1029.3398449381073	-104.31423147520258	943.1371189735057	1025.3068411368426	-105.86512921642156	940.3567152275231	1017.6684594766683	-92.15639719996449	949.7411139451442	1012.3994675748479	-92.02567006131406	953.1773215013624	1006.3436513471918	-93.7805892810146	952.7885150505019	1004.4261595973105	-96.7333510764033	950.7634400402234	1004.0851962426565	-100.43314677102104	940.211455797577	1008.5564682107578	-89.44940779346362	949.2870330152691	998.4892507169891	-87.85716748613626	952.983147743572	990.6929488948474	-89.41767805569864	952.4884008620947	987.8093955788626	-92.8099950565398	950.2601249062832	987.1591309092755	-96.77555942706323	939.9034356844617	1002.2544425551027	-87.51476272157905	947.8692823150072	987.7649367062779	-84.33378620361047	951.0214961854697	979.7710420347171	-85.33443679237999	950.5074473920585	976.3530979686351	-88.4156881205293	948.3948512908871	975.4400509286788	-92.05385683225362	939.0081019856981	995.1346634300729	-85.48962030432709	945.8797327614294	977.4577961981619	-81.23795708561572	948.2607507512125	969.2497902311217	-81.49245131206261	947.8165522222471	965.8827268227283	-83.47542697076753	945.9052788173321	964.570916729752	-86.54603191270661	814.5318216067036	1246.1054750959472	-100.57486121111513	805.6889755425049	1243.8419913155906	-58.35129361388426	888.2662430906798	1114.134946801232	-45.12851541094973	938.9211398041244	1025.6737119330223	-47.30910865823037	941.1041120423582	1042.3967837135353	-54.15102930845153	948.7743580293554	1044.0289190653016	-51.782280064518545	955.0777982857949	1041.7924205374945	-48.74526437934852	961.1555623616351	1037.0423342963602	-45.02654034356137	944.5753411135527	1032.4803633825413	-50.37613337967471	957.5516015153561	1027.5954225812623	-47.44472711699466	967.5279735738552	1020.7721761939747	-42.355375315513804	972.4591885203025	1017.7775889433141	-38.87516006124926	975.6833607780077	1016.1403926008803	-35.7813177031525	946.7848175980528	1023.3133115512077	-46.559676195618835	960.6363103866552	1013.5912065051958	-41.637011031406914	971.7731440413567	1004.9476837119456	-35.58564177387302	977.8427343740777	1000.7599379548357	-31.147974704445936	981.4290269679958	998.6890810229314	-27.646606891011352	948.0139392964552	1016.9731945410747	-43.959462946465266	961.4924573616951	1002.790917906169	-37.3529483279684	971.4337050833849	994.04790022181	-31.57719874268032	977.4127547879614	989.366287601985	-27.030467105588812	980.8437452635919	987.1148381398326	-23.612127481351553	949.0604434253117	1009.714871614989	-40.87962540932127	962.0697439054277	992.2700704514004	-32.99201945602278	970.3371571337591	983.4441207571938	-27.61349552219055	974.8467226085908	979.1465844770698	-23.93258546519122	977.9714443063458	976.6441322466396	-20.694722796596142
198	1.642	1081.203	893.81699	129.612	1102.1158184527358	863.1762025399354	77.71942755814047	1017.1712314480109	457.4221965894489	45.11715498550677	1102.2853716823088	118.76088514738642	-74.95632330263629	1028.8877490860054	20.788434721271628	63.44339799267367	1071.0086899286134	897.7624630055599	195.55154520950427	961.2247103265368	508.3285341887954	300.79196791089333	850.7851414476115	92.53888990892104	384.4333483412928	708.1420073619354	25.497441873132804	279.17072094182134	1037.7853183268662	1016.9405282101429	71.84641345494963	986.2046765880492	1084.0655419356794	24.392953393779955	927.8636870254969	1149.0211794797021	-26.432002031137532	865.5847353184806	1203.0119866746893	-77.23975700877821	797.9656437265903	1261.3711442807787	-129.61298584777532	731.6192873415214	1311.5707058927965	-172.20022121170595	592.4783420950665	1388.4228882553987	-177.86522152582125	824.7794551982606	1235.6400530559051	-124.35962571034989	837.4654925783016	1211.5533985935087	-155.29924597552218	911.579695364238	1088.5165752915464	-96.2736503685037	927.4345615758784	1013.4139548593387	-81.8663322634531	933.1469959643885	1029.468658779418	-86.61953861392585	934.8704276789069	1032.2578477986888	-91.74047371613311	936.1844665637035	1030.8309025798505	-94.25865995994278	937.3773092954636	1026.7589447787811	-95.461398320185	934.6333867377906	1019.3064990302215	-82.97142984819969	943.65723266183	1013.8961043751062	-82.19072135172	946.9767004875162	1007.7647208871883	-83.39567966561438	946.6225801277413	1005.8184372352865	-86.01872374241265	944.6985674063941	1005.4658912395852	-89.45383140745447	934.4882361356243	1010.218295535838	-80.23122469679345	943.2121557539419	1000.0260271451141	-77.98706285669824	946.7822315837749	992.1508903885989	-78.9450678299882	946.329974917202	989.2343335925646	-81.93843437575539	944.2125988679079	988.5722492598172	-85.61382153815156	934.1880077413064	1003.9364744933897	-78.29043280853132	941.8411312539425	989.35179018478	-74.52203037208416	944.8854491404436	981.2930941653161	-74.99610418594837	944.4134225078897	977.8453866730994	-77.69177739530089	942.4055900557116	976.9222147523187	-81.05673823229951	933.3237536843641	996.8457891804809	-76.27121686492593	939.9226423972725	979.0987771301433	-71.48669153380123	942.2216781140029	970.8453947826903	-71.31984567220451	941.810265170733	967.4597696694805	-73.02173877686698	939.9930349751738	966.140802199211	-75.85041501067208	815.8127645437808	1247.657279205523	-99.5528829668153	808.068592360338	1246.6724315459037	-57.12244409531864	888.7140357996217	1115.80349121277	-42.01235205975175	935.7044687877896	1026.3631297433722	-42.430334170897694	937.6494474500128	1042.9229285326353	-49.34030075119542	944.9926553839424	1044.4409256567458	-47.17718219122557	951.0565838598021	1042.1316742799713	-44.25309627904582	956.9246276076258	1037.326699568111	-40.60260939050245	941.05724789178	1033.010058386532	-45.4393755671395	953.5268412315098	1027.930271037389	-42.409855588983056	963.147641652956	1021.0013418607217	-37.379024467493856	967.9050570857294	1017.9671121348782	-34.037065228895514	971.0172578621779	1016.3146803313342	-31.12637604915971	943.252245637599	1023.8695306647815	-41.55000927374101	956.6017147390652	1013.9717059670214	-36.49218709536645	967.3502768896021	1005.2170333376133	-30.495534171416203	973.2100584414952	1000.9834629476213	-26.220276571097358	976.6737703767195	998.8969012763351	-22.91717525220473	944.4839203787965	1017.5528139886331	-38.899285752468586	957.5143004307997	1003.2325094277123	-32.12339504517251	967.1176541683042	994.3971536299207	-26.3862163698336	972.8946023975775	989.6737540927687	-21.99130235262175	976.2104601987625	987.4086819247683	-18.75709388273262	945.5492076020716	1010.3294738126122	-35.7759349759981	958.1583975634439	992.778569304392	-27.70106986650605	966.1579969798664	983.8863665546797	-22.339962871667225	970.521489342478	979.562064443069	-18.763276606856387	973.5449873786807	977.0496881109399	-15.684761461764055
199	1.65	1081.203	893.81699	129.612	1102.9322405844007	863.405660241255	77.65535779698511	1018.6115018580185	457.5377695562924	45.67763880186077	1104.9047603902445	119.46381653592854	-75.56147113074736	1032.2272574071	21.21454482953995	62.9119598206467	1070.2700618158897	897.5868355376064	195.6543645557743	960.3955136194329	508.22463412547876	301.0848143388033	850.0732358135284	92.07750201389541	383.8089330900268	707.6188774848363	24.19825973911994	278.8202905568263	1037.3700088149656	1016.7411509965071	71.74144774441442	985.61836303404	1083.6627622594049	24.202321132531537	927.1696106810655	1148.4702042152	-26.666997249370464	864.8912158284455	1202.474652125304	-77.43717556940429	797.2835382372302	1260.8394821340833	-129.79283616144693	731.0557291609875	1311.1287677574219	-172.43610372660626	591.9524497592228	1388.0213173376092	-178.13516951324	823.7933171443369	1234.7158482351665	-124.50367152521532	835.3665818378572	1209.330767820509	-154.86607226759034	908.1582952797589	1088.176904222823	-91.82394294242349	921.0250542061406	1012.7335574559879	-74.66531251318818	926.5244452888124	1028.6248405259962	-79.03596576654874	928.2549661013618	1031.3571772378882	-83.5399635287291	929.5677034422005	1029.906472875365	-85.61448296152598	930.7541282780935	1025.8282466148578	-86.43535030807243	927.9402180769755	1018.4961723137636	-75.31445595337428	936.631695006551	1012.9815432775762	-73.7328852901514	939.8731853717566	1006.8215746943785	-74.3164483262085	939.5856129075911	1004.876842169397	-76.59156462601491	937.7942730715527	1004.5386285490209	-79.76459735749748	927.7969439222181	1009.4567279654724	-72.56090270792534	936.1976510718032	999.1891423418667	-69.52841659200513	939.684160786172	991.2896487379392	-69.80910666177127	939.3129290242298	988.3782359806526	-72.38308377098463	937.3410637343209	987.7334220529928	-75.77189105174259	927.5048598287242	1003.2116428679117	-70.63152458251778	934.8705405950946	988.5902913848405	-66.16770147108622	937.8440867297443	980.5174581933115	-66.0534404286249	937.4513156398349	977.0784955884517	-68.34564593304316	935.5808322180512	976.1733440299731	-71.44166119640383	926.6727308344136	996.1691880823386	-68.64551514693048	933.0220875472538	978.4170263799117	-63.24471731076332	935.2689687703303	970.1635631530335	-62.61292170638926	934.917546091032	966.7897520369863	-64.02350087054853	933.2232298024821	965.4898790883334	-66.6156473015184	815.4236201261244	1247.5291164610956	-99.7595807823128	808.669982254732	1248.2516729720019	-57.16594430048359	887.2202280270128	1116.0909161076395	-39.69123082035284	931.7659322146707	1025.574208464293	-38.780315013438035	933.4230581291401	1041.8067858971492	-45.66465527179695	940.4194116925668	1043.0955355122762	-43.67884608886236	946.2394215873733	1040.6510917385233	-40.85128787715424	951.9020716166837	1035.7543335250455	-37.25822890550702	936.7958502113913	1031.9443415223948	-41.63383470755077	948.7634650543414	1026.563575384103	-38.40076254791495	958.0352946785874	1019.4638595113042	-33.393589554654	962.6168366599137	1016.3480851311348	-30.194825982522968	965.6111815664989	1014.6447973045811	-27.48933844445981	939.0018569648707	1022.8826477809782	-37.686133081666625	951.8676672232885	1012.7338926612586	-32.39815036704786	962.2385221914276	1003.8042768998629	-26.42048639596317	967.8876004397782	999.4778244589226	-22.31471653051189	971.2230762403902	997.3382799837699	-19.23454528938929	940.2540063582944	1016.6290207463567	-34.997491555024446	952.868357168953	1002.1377397631608	-27.976871213094253	962.1464027655287	993.1619819811565	-22.249645682790383	967.7221803538645	988.3554017981699	-18.014709504301567	970.9184619819267	986.0435467957034	-14.988451565372788	941.3583649061636	1009.4894110092548	-31.851257990209984	953.6095076437558	991.8322338376768	-23.531405261856097	961.3565294350378	982.8471919370124	-18.169051442509744	965.5771198233158	978.4716990189853	-14.704595046051637	968.4968929183096	975.9233387223572	-11.807733352194186
